<svg xmlns="http://www.w3.org/2000/svg" xmlns:xlink="http://www.w3.org/1999/xlink"><symbol viewBox="0 0 139.1 137.8" id="bootstrap"><linearGradient id="aa" gradientUnits="userSpaceOnUse" x1="212.839" y1="-52.591" x2="12.362" y2="117.378"><stop offset="0" stop-color="#7a2d4e"/><stop offset=".135" stop-color="#732b4c"/><stop offset=".36" stop-color="#5f2646"/><stop offset=".647" stop-color="#411e3d"/><stop offset=".982" stop-color="#171130"/><stop offset="1" stop-color="#14102f"/></linearGradient><path fill="url(#aa)" d="M118.1 137.8H21c-11.6 0-21-9.4-21-21V21C0 9.4 9.4 0 21 0h97.1c11.5 0 21 9.4 21 21v95.8c0 11.5-9.5 21-21 21z"/><path fill="#FFF" d="M75.8 26c3.9 0 7.4.3 10.6 1 3.2.7 6 1.8 8.2 3.4C97 32 98.8 34 100 36.6c1.3 2.6 1.9 5.8 1.9 9.6 0 4.1-.9 7.6-2.8 10.3-1.9 2.7-4.6 5-8.3 6.8 5 1.5 8.8 4 11.3 7.6 2.5 3.6 3.7 8 3.7 13.1 0 4.1-.8 7.7-2.4 10.7-1.6 3-3.8 5.5-6.5 7.4-2.7 1.9-5.8 3.3-9.3 4.2-3.5.9-7 1.4-10.7 1.4H37.4V26h38.4zm-2.3 33.1c3.2 0 5.8-.8 7.9-2.3 2.1-1.5 3.1-4 3.1-7.4 0-1.9-.3-3.5-1-4.7-.7-1.2-1.6-2.2-2.7-2.9-1.1-.7-2.5-1.2-3.9-1.4-1.5-.3-3-.4-4.6-.4h-17v19.1h18.2zm1.1 34.7c1.8 0 3.4-.2 5-.5s3-.9 4.2-1.7c1.2-.8 2.2-1.9 2.9-3.3.7-1.4 1.1-3.1 1.1-5.3 0-4.2-1.2-7.2-3.5-9-2.4-1.8-5.5-2.7-9.4-2.7H55.3v22.4h19.3z"/></symbol><symbol viewBox="0 0 462.529 406.613" id="bower"><path fill="#543729" d="M453.689 198.606c-23.79-22.859-142.749-37.129-180.285-41.283a110.157 110.157 0 0 0 4.644-13.308 150.218 150.218 0 0 1 16.352-6.067c.696 2.053 3.974 9.919 5.842 13.652 75.479 2.082 79.354-56.091 82.424-72.028 3.002-15.583 2.849-30.64 28.739-58.166-38.571-11.24-94.039 17.421-112.618 60.08-6.982-2.616-13.979-4.548-20.9-5.743C272.927 55.737 247.101 0 179.329 0 93.522 0 0 70.789 0 190.621c0 100.73 68.772 189.007 107.628 189.007 16.969 0 31.566-12.707 34.993-24.098 2.873 7.81 11.688 32.09 14.583 38.271 4.279 9.14 24.068 17.049 32.728 7.564 11.135 6.186 31.566 9.912 42.702-6.585 21.445 4.536 40.404-8.252 40.818-23.511 10.523-.562 15.685-15.337 13.387-27.104-1.694-8.663-19.789-39.748-26.847-50.478 13.972 11.365 49.363 14.582 53.661.007 22.527 17.682 57.633 8.401 60.417-5.979 27.372 7.112 58.767-8.508 53.612-27.426 43.973-3.041 38.345-49.827 26.007-61.683z"/><path fill="#00ACEE" d="M331.252 98.825c9.471-18.791 21.372-39.309 36.404-52.003-16.545 6.668-32.88 26.601-42.538 47.906a148.99 148.99 0 0 0-14.961-8.361c13.473-28.758 44.779-52.775 79.28-54.651-23.109 20.958-14.906 64.518-33.906 87.578-5.437-5.461-17.921-16-24.279-20.469zm-14.938 30.599c.01-.719.279-6.266.784-8.798-1.325-.312-9.561-1.923-13.855-1.822-.313 5.393 2.266 14.568 4.815 20.091 17.555-.368 30.235-5.625 37.698-10.458-6.354-2.962-17.196-5.595-25.44-7.17-.92 1.903-3.184 6.752-4.002 8.157z"/><path fill="#2BAF2B" d="M251.083 278.09c.004.025.015.059.018.084-2.225-4.788-4.588-10.604-7.41-18.206 10.988 15.994 45.426 7.745 43.62-6.587 16.856 12.683 51.553-2.113 43.665-19.897 16.885 7.868 36.157-7.963 31.835-14.861 28.787 5.552 56.374 11.086 65.034 13.302-5.753 9.38-18.855 16.004-38.605 11.401 10.672 14.538-10.048 31.979-38.908 22.373 6.353 14.272-19.343 27.121-48.548 12.245.371 14.278-36.231 15.922-50.701.146zm57.105-72.167c33.411 2.565 88.663 7.547 122.869 12.334-2.161-11.132-8.064-14.312-26.633-19.3-19.971 2.13-70.638 7.107-96.236 6.966z"/><path fill="#FFCC2F" d="M287.311 253.381c16.856 12.683 51.553-2.113 43.665-19.897 16.885 7.868 36.157-7.963 31.835-14.861-34.034-6.562-69.747-13.148-77.848-14.299 4.914.261 13.059.819 23.225 1.6 25.599.141 76.266-4.836 96.236-6.966-32.336-8.199-98.356-20.164-143.95-23.112-2.113 3.088-5.997 8.325-12.762 13.89-19.948 42.207-56.091 70.262-96.081 70.262-11.654 0-24.693-1.966-39.308-6.638-9.114 9.764-47.973 17.163-79.503 1.687 25.01 58.562 83.01 97.654 147.211 97.654 54.07 0 78.046-55.214 72.799-69.823-1.273-3.547-6.318-15.308-9.141-22.909 10.99 15.993 45.427 7.744 43.622-6.588z"/><path fill="#CECECE" d="M254.543 142.258c4.774-2.597 21.272-12.597 36.993-16.355a69.743 69.743 0 0 1-.551-5.263c-10.314 2.47-29.759 10.804-40.902-.681 23.509 7.094 35.247-6.321 52.526-6.321 10.296 0 24.988 2.876 36.569 7.423-9.315-8.605-39.861-34.575-77.681-34.665-8.444 10.237-17.571 32.412-6.954 55.862z"/><path fill="#EF5734" d="M112.323 253.36c14.615 4.672 27.654 6.638 39.308 6.638 39.99 0 76.132-28.056 96.081-70.262-14.754 12.316-40.396 22.854-80.441 22.854 35.669-8.088 66.375-25.863 81.995-51.845-10.98-17.476-22.889-56.138 7.269-86.702-4.639-14.904-27.219-54.248-77.206-54.248-87.236 0-159.533 72.997-159.533 170.825 0 23.158 4.675 44.877 13.025 64.426 31.529 15.477 70.388 8.078 79.502-1.686z"/><path fill="#FFCC2F" d="M138.496 104.407c0 22.252 18.039 40.293 40.292 40.293s40.294-18.041 40.294-40.293c0-22.253-18.041-40.293-40.294-40.293-22.253 0-40.292 18.04-40.292 40.293z"/><path fill="#543729" d="M154.664 104.407c0 13.322 10.802 24.123 24.123 24.123 13.324 0 24.124-10.801 24.124-24.123 0-13.323-10.799-24.124-24.124-24.124-13.321 0-24.123 10.801-24.123 24.124z"/><ellipse fill="#FFF" cx="178.787" cy="93.703" rx="14.057" ry="8.74"/></symbol><symbol viewBox="0 0 105.3 119.4" id="css3"><path fill="#0A71B9" d="M0 0h105.3l-9.4 107.6-43.3 11.8-43.2-11.8z"/><path fill="#28A7DE" d="M52.6 8.9h43.9l-8.4 91.7-35.5 10.2z"/><path fill="#EBEBEB" d="M79.8 22.2H19.7L21 35.3h50.2l-1.6 13.2H22.2l1.2 12.9h45.5l-1.7 17.8-14.8 3.6-14.5-3.6-.8-10.6h-13l2 21.3L53 97.2l26.8-7.3 6.3-67.7z"/><path fill="none" d="M69.6 48.5l1.6-13.2H52.9v13.2zm-2.4 30.7l1.7-17.8h-16v21.2z"/><path fill="#FFF" d="M79.7 22.2H52.6v13.1h18.5l-1.6 13.2H52.6v12.9h16.2l-1.7 17.8-14.5 3.4v14.6h.2l26.9-7.3 6.4-67.7z"/></symbol><symbol viewBox="0 0 135.6 135.6" id="emmet"><circle fill="#1B1C20" cx="67.8" cy="67.8" r="67.8"/><path fill="#BFDD9C" d="M91.3 42.1l-4.2 16.3 7.4 7.4 9.3-36.1-36.4 9.1 7.4 7.3z"/><path fill="#7CC242" d="M77.2 97.7L62.7 83.3l4.2-16.7-17.1 3.8-14.5-14.6 25.9-6.3-7.3-7.4-36.4 9.1 64.3 64.3 9.3-36.2-7.4-7.3z"/></symbol><symbol viewBox="0 0 175 387" id="gulp"><title>gulp</title><g fill="#DA4648" fill-rule="evenodd"><path d="M86.72 304.739c-22.574 0-40.017-3.391-48.405-5.412-5.736-1.382-10.342-2.812-13.841-4.281l11.187 19.113 4.376 59.719c0 6.695 21.268 12.122 47.503 12.122s47.503-5.427 47.503-12.122l3.465-60.369 10.585-18.519c-3.514 1.489-8.161 2.938-13.969 4.337-8.388 2.021-25.831 5.412-48.404 5.412zm62.736-194.328C132.888 112.725 110.899 114 87.54 114c-23.359 0-45.348-1.275-61.916-3.589-8.207-1.146-14.7-2.498-19.299-4.016-1.097-.363-2.956-.982-4.745-1.968L11.845 198.9a80.437 80.437 0 0 1 1.597-4.871 92.354 92.354 0 0 1 4.181-9.731 86.201 86.201 0 0 1 5.169-8.984 69.482 69.482 0 0 1 5.946-7.79c2.102-2.372 4.258-4.412 6.472-6.122 2.213-1.708 4.447-3.044 6.702-4.006 2.256-.962 4.49-1.444 6.703-1.444 2.549 0 5.015.697 7.397 2.091 2.381 1.393 4.607 3.65 6.681 6.769.476.697.778 1.402.903 2.115.127.714.189 1.386.189 2.016 0 1.493-.357 2.672-1.071 3.534-.714.863-1.562 1.294-2.542 1.294-.898 0-1.731-.473-2.501-1.418-.771-.946-1.632-2.298-2.585-4.057-.897-1.593-1.884-2.745-2.962-3.459-1.079-.713-2.248-1.07-3.509-1.07-1.961 0-4.055.813-6.282 2.439-2.228 1.625-4.434 3.774-6.618 6.445-2.186 2.672-4.28 5.724-6.283 9.159a95.582 95.582 0 0 0-5.317 10.551c-1.541 3.602-2.765 7.153-3.676 10.653-.911 3.5-1.366 6.644-1.366 9.431 0 .93.064 1.885.189 2.862.127.98.364 1.867.715 2.664.349.797.826 1.451 1.428 1.964.603.516 1.366.772 2.29.772 1.037 0 2.213-.348 3.531-1.045 1.316-.695 2.682-1.609 4.096-2.736a51.479 51.479 0 0 0 4.266-3.834 68.31 68.31 0 0 0 3.992-4.33 63.288 63.288 0 0 0 3.277-4.205c.953-1.344 1.667-2.514 2.144-3.51l3.908-11.697c.476-1.26 1.099-2.156 1.87-2.687.77-.531 1.562-.797 2.375-.797.391 0 .783.067 1.176.199.393.133.742.341 1.051.622.308.283.553.647.735 1.096.182.447.273.97.273 1.567 0 1.593-.14 3.085-.42 4.48a35.597 35.597 0 0 1-1.072 4.082 70.343 70.343 0 0 1-1.45 4.006 98.955 98.955 0 0 0-1.554 4.207c-.112.166-.315.687-.61 1.566-.294.881-.65 1.985-1.071 3.311-.42 1.328-.876 2.812-1.366 4.455-.491 1.643-.994 3.318-1.512 5.027a408.413 408.413 0 0 0-1.492 5.028 1259.144 1259.144 0 0 0-2.228 7.789 56.33 56.33 0 0 1-.462 1.594c-.14.529-.365 1.119-.672 1.765a11.665 11.665 0 0 1-1.093 1.842A6.712 6.712 0 0 1 40 239.945c-.504.381-1.022.573-1.555.573-.896 0-1.548-.299-1.953-.895-.407-.598-.609-1.693-.609-3.285v-.697c0-.233.013-.483.041-.746.027-.532.238-1.528.631-2.989.392-1.459.861-3.109 1.408-4.951.546-1.842 1.135-3.75 1.765-5.725.629-1.974 1.197-3.74 1.702-5.3a83.674 83.674 0 0 1-4.833 4.953 52.125 52.125 0 0 1-5.337 4.429c-1.822 1.311-3.657 2.381-5.505 3.211-1.849.829-3.628 1.245-5.337 1.245-1.961 0-3.649-.432-5.065-1.295-.255-.157-.496-.332-.736-.506l5.712 59.888c1.487 3.727 29.481 12.884 66.391 12.884 36.927 0 64.932-9.166 66.393-12.89l8.205-71.202c-.679.623-1.34 1.232-1.972 1.822-2.354 2.189-4.575 4.072-6.662 5.648-2.086 1.576-4.125 2.797-6.114 3.658-1.99.864-4.119 1.295-6.388 1.295-2.129 0-3.776-.465-4.938-1.394-1.162-.928-1.744-2.205-1.744-3.832v-.373c0-.116.014-.258.043-.424.111-.994.547-2.141 1.303-3.434a39.467 39.467 0 0 1 2.73-4.031 111.206 111.206 0 0 1 3.404-4.232 195.7 195.7 0 0 0 3.342-4.057c1.022-1.275 1.869-2.445 2.541-3.508.674-1.062 1.01-1.924 1.01-2.588 0-.398-.141-.713-.42-.947-.281-.23-.744-.348-1.387-.348-1.121 0-2.277.291-3.466.871-1.192.58-2.37 1.362-3.532 2.34a31.982 31.982 0 0 0-3.404 3.36 49.566 49.566 0 0 0-3.109 3.931 53.324 53.324 0 0 0-2.647 4.108 57.767 57.767 0 0 0-2.039 3.806c-.168.366-.406.881-.715 1.543-.308.664-.644 1.412-1.008 2.241-.365.83-.75 1.685-1.156 2.562a111.16 111.16 0 0 0-1.113 2.49l-.902 2.09a47.207 47.207 0 0 1-.569 1.27c-.14.298-.371.861-.693 1.691-.322.83-.694 1.801-1.113 2.912l-1.325 3.51a1626.309 1626.309 0 0 0-2.373 6.371c-.308.828-.506 1.393-.59 1.692a18.168 18.168 0 0 1-.986 2.44 10.044 10.044 0 0 1-1.303 2.016 5.96 5.96 0 0 1-1.681 1.392c-.631.35-1.338.523-2.121.523-1.01 0-1.842-.242-2.502-.722-.657-.481-.987-1.403-.987-2.762 0-.664.084-1.344.252-2.04.168-.697.379-1.387.631-2.066.252-.682.512-1.344.778-1.991.265-.648.511-1.269.734-1.867a973.25 973.25 0 0 1 4.623-9.98 460.161 460.161 0 0 0 4.518-9.904c.3-.682.576-1.35.869-2.028-.088.086-.174.176-.26.26-1.822 1.76-3.635 3.31-5.442 4.654-1.808 1.344-3.601 2.414-5.378 3.211-1.78.795-3.51 1.194-5.192 1.194-1.148 0-2.107-.182-2.877-.547-.771-.366-1.386-.864-1.849-1.493-.463-.63-.793-1.377-.989-2.24-.066-.295-.107-.603-.15-.91a40.99 40.99 0 0 1-1.488 1.11c-1.737 1.226-3.446 2.214-5.127 2.96-1.68.747-3.194 1.12-4.537 1.12-1.346 0-2.438-.448-3.28-1.344-.84-.895-1.259-2.422-1.259-4.578 0-1.528.224-3.303.671-5.326-.728 1.294-1.638 2.605-2.73 3.931a23.953 23.953 0 0 1-3.74 3.635A18.687 18.687 0 0 1 70.803 228c-1.738.68-3.629 1.02-5.673 1.02-.925 0-1.814-.116-2.669-.348a5.594 5.594 0 0 1-2.248-1.195c-.645-.563-1.162-1.319-1.555-2.264-.392-.945-.588-2.133-.588-3.559 0-.033.056-.539.168-1.519.112-.979.469-2.522 1.072-4.629.602-2.106 1.534-4.836 2.793-8.188 1.262-3.351 3.041-7.416 5.338-12.193.588-1.262 1.268-2.166 2.037-2.713.772-.548 1.604-.822 2.5-.822.393 0 .799.059 1.219.174.422.117.813.299 1.178.548.363.249.658.565.883.946.222.381.336.82.336 1.318 0 .332-.043.649-.127.945-.141.567-.442 1.303-.902 2.215-.463.914-1.003 1.959-1.62 3.137a293.69 293.69 0 0 0-1.953 3.809 54.344 54.344 0 0 0-1.912 4.23 42.237 42.237 0 0 0-1.513 4.455c-.42 1.51-.659 2.979-.714 4.405 0 .597.139 1.144.42 1.642.28.498.743.746 1.387.746 1.82 0 3.557-.598 5.211-1.791 1.652-1.195 3.178-2.68 4.58-4.455a42.767 42.767 0 0 0 3.803-5.725c1.135-2.041 2.08-3.906 2.836-5.599a28.386 28.386 0 0 0 1.408-3.633 36.134 36.134 0 0 1 1.324-3.584c.477-1.096 1.022-2.008 1.639-2.738.615-.729 1.387-1.095 2.31-1.095 1.01 0 1.807.382 2.397 1.145.588.764.881 1.676.881 2.737 0 .597-.188 1.42-.567 2.465a70.18 70.18 0 0 1-1.429 3.584 459.325 459.325 0 0 1-1.869 4.304 75.544 75.544 0 0 0-1.869 4.655 46.122 46.122 0 0 0-1.43 4.629c-.379 1.509-.567 2.912-.567 4.205 0 1.195.616 1.793 1.848 1.793.869 0 1.947-.299 3.236-.897 1.289-.598 2.641-1.435 4.055-2.514.353-.269.709-.55 1.062-.845.395-1.629.858-3.135 1.397-4.504.98-2.59 1.975-5.16 2.984-7.715a4697.75 4697.75 0 0 1 2.774-7.019l12.732-32.104c.504-1.294 1.184-2.207 2.037-2.738.856-.53 1.717-.796 2.586-.796.867 0 1.658.282 2.373.846.715.565 1.073 1.477 1.073 2.738 0 .597-.12 1.228-.358 1.891a22.894 22.894 0 0 1-.904 2.14 396.042 396.042 0 0 0-2.5 5.724 867.899 867.899 0 0 0-6.514 15.654 5011.643 5011.643 0 0 1-3.404 8.387c-1.105 2.722-2.143 5.3-3.11 7.74-.966 2.439-1.798 4.555-2.5 6.346a27.944 27.944 0 0 0-.902 2.664c-.295 1.011-.441 1.916-.441 2.713 0 .496.084.894.252 1.193.168.299.49.449.966.449.588 0 1.323-.207 2.206-.623.882-.414 1.834-.963 2.857-1.643a45.66 45.66 0 0 0 3.193-2.339 99.148 99.148 0 0 0 3.299-2.737 89.618 89.618 0 0 0 3.131-2.838c.994-.945 1.885-1.816 2.67-2.613.184-.191.404-.326.646-.427a89.386 89.386 0 0 0 1.286-4.151c.224-.598.533-1.443.925-2.539.391-1.096.84-2.174 1.344-3.236.504-1.061 1.073-1.983 1.701-2.762.631-.779 1.311-1.17 2.039-1.17 1.121 0 1.934.258 2.438.771.504.516.756 1.27.756 2.266 0 .199-.028.514-.084.945-.057.432-.125.889-.209 1.37-.084.48-.176.937-.274 1.369-.099.431-.189.746-.273.945a56.639 56.639 0 0 1 3.361-3.359 34.588 34.588 0 0 1 3.74-3.012 21.613 21.613 0 0 1 3.952-2.192c1.343-.562 2.689-.845 4.033-.845.924 0 1.842.133 2.752.399.91.265 1.724.655 2.437 1.169a6.113 6.113 0 0 1 1.744 1.942c.448.779.672 1.683.672 2.712 0 1.362-.342 2.813-1.029 4.356a31.546 31.546 0 0 1-2.584 4.652 58.26 58.26 0 0 1-3.361 4.555 173.74 173.74 0 0 1-3.383 4.031 343.597 343.597 0 0 0-2.649 3.086c-.712.848-1.086 1.42-1.113 1.719 0 .398.127.721.379.971.252.248.672.373 1.26.373.476 0 1.178-.266 2.101-.797.924-.531 2.221-1.451 3.887-2.762s3.783-3.07 6.346-5.277a605.745 605.745 0 0 0 6.135-5.366l11.114-102.929c-1.79.988-3.652 1.608-4.75 1.971-4.598 1.518-11.091 2.87-19.299 4.016zM87.474 85.99c-48.049 0-87 5.372-87 12s38.951 12 87 12 87-5.372 87-12-38.951-12-87-12zm34.738 15.507c0 1.555-4.629 2.816-10.34 2.816-5.71 0-10.339-1.261-10.339-2.816 0-1.556 4.629-2.817 10.339-2.817 5.711 0 10.34 1.261 10.34 2.817z"/><path d="M103.627 100.252a.467.467 0 0 0-.078.25c0 1.007 3.727 1.822 8.323 1.822 4.597 0 8.323-.815 8.323-1.822l10.871-44.078 43.233-45.645a.878.878 0 0 0 .041-.043c.915-1.035-.942-4.238-4.023-6.985-3.081-2.747-6.408-3.677-7.442-2.631a.843.843 0 0 0-.023.024l-46.127 48.538-13.098 50.57z"/></g></symbol><symbol viewBox="0 0 105.9 120.1" id="html5"><path fill="#E55025" d="M0 0h105.9l-9.4 108.2-43.6 11.9-43.5-11.9z"/><path fill="#F26722" d="M96.8 9H53.3v102.2l35.1-10z"/><path fill="#FFF" d="M34.4 35.5h51l1.2-13.2H19.9l3.7 39.4h45.9l-1.7 17.9-15 3.7-14.5-3.7-.9-10.6H24.3l2 21.4 27.1 7.4 26.8-7.4 3.9-41.6H36z"/><path fill="#E6E6E6" d="M52.8 83.3l-14.5-3.7-.9-10.6H24.3l2 21.4 27 7.4V83.2z"/><path fill="#EBEBEB" d="M36 48.8l-1.6-13.3h18.9V22.3H19.9l3.7 39.4h29.7V48.8z"/></symbol><symbol viewBox="0 0 630 630" id="js"><path fill="#f7df1e" d="M0 0h630v630H0z"/><path d="M423.2 492.19c12.69 20.72 29.2 35.95 58.4 35.95 24.53 0 40.2-12.26 40.2-29.2 0-20.3-16.1-27.49-43.1-39.3l-14.8-6.35c-42.72-18.2-71.1-41-71.1-89.2 0-44.4 33.83-78.2 86.7-78.2 37.64 0 64.7 13.1 84.2 47.4l-46.1 29.6c-10.15-18.2-21.1-25.37-38.1-25.37-17.34 0-28.33 11-28.33 25.37 0 17.76 11 24.95 36.4 35.95l14.8 6.34c50.3 21.57 78.7 43.56 78.7 93 0 53.3-41.87 82.5-98.1 82.5-54.98 0-90.5-26.2-107.88-60.54zm-209.13 5.13c9.3 16.5 17.76 30.45 38.1 30.45 19.45 0 31.72-7.61 31.72-37.2v-201.3h59.2v202.1c0 61.3-35.94 89.2-88.4 89.2-47.4 0-74.85-24.53-88.81-54.075z"/></symbol><symbol viewBox="0 0 1000 1000" id="logo"><style>.hst0{fill:#f64040}</style><g id="hicon"><path class="hst0" d="M500 637.2l-160.5 16.5-48.2 85.7H390l25.5-48h169l25.5 48h98.7l-48.2-85.7zm-100.5-90.1l83.2-15.8 17.3-38.8 17.3 38.8 83.2 15.8L500 368.5z"/><path class="hst0" d="M500 348.3l123.4 215.2L500 540.3v16.4l139.4 18.7L500 313.7zm0 262.6v16.4l167.7 13.3 56.6 98.8h6.8l-60.2-105.5z"/><path class="hst0" d="M500 563.8v16.4l174.5 17.6L500 258.7v36l161.9 294.8zm0 23.6v16.3l179.9 18.7 64.3 117h6.5l-67.2-124.2z"/><path class="hst0" d="M513.3 226.4L500 218l-90.1 56.9-217.2 464.5h3.9L421 284.7l79-47 263.9 501.7h5.8zm76.8 48.5l-19.3-12.2 233.4 476.7h3.1zm-34.5-21.8l-23.2-14.7 251.2 501h5.9z"/></g></symbol><symbol viewBox="0 0 133.5 36.9" id="nodejs"><path fill="#353128" d="M128 23.5c-.1-.7-.7-1.1-1-1.4-.4-.2-.9-.3-1.5-.3-1.3 0-2.5.4-2.5 1.1 0 .5.3.8 1.3.9l2.6.2c1.1.1 1.7.4 2.3.7.8.4 1.2 1.3 1.2 2.2 0 1.1-.5 1.9-1.4 2.4-.8.4-1.8.6-3.3.6-1.8 0-3.1-.4-3.9-1.1-.6-.6-.8-1.2-.9-2.4h1.7c.1.6.2.9.6 1.2.5.4 1.7.6 2.6.6 1.4 0 2.5-.4 2.5-1.2 0-.6-.7-.9-1.7-1l-2.5-.3c-1.9-.2-3-1.1-3-2.6 0-1.9 1.7-3.1 4.4-3.1 1.4 0 2.6.3 3.4.9 1 .7 1 1.8 1 2.5H128z"/><path fill="#353128" d="M132.5 18l-8.8-5.1c-.6-.3-1.3-.4-1.9 0L113 18c-.6.3-1 1-1 1.7v10.2c0 .7.4 1.3 1 1.7l8.8 5.1c.6.3 1.3.4 1.9 0l8.8-5.1c.6-.3 1-1 1-1.7V19.7c0-.7-.4-1.3-1-1.7zm-.7 12.1l-9.1 5.2-4.2-2.5c.7-.4 1.1-1.2 1.2-2V20.1h-1.8v10.1c0 .8-.6 1.4-1.4 1.4-.2 0-.4 0-.5-.1h-.1l-2.3-1.3V19.7l9.1-5.2 9.1 5.3v10.3z"/><path fill="#8CC644" d="M28.1 29.9v-10c0-.7.4-1.3 1-1.6l8.7-5c.6-.3 1.3-.3 1.9 0l8.6 5c.6.3.9 1 .9 1.7v10c0 .7-.4 1.3-1 1.6l-8.7 5c-.6.3-1.3.3-1.9 0l-8.6-5c-.5-.4-.9-1-.9-1.7zM93 26v-1.9c0-.1.1-.3.2-.3l1.7-1c.1-.1.3-.1.4 0l1.7 1c.1.1.2.2.2.3V26c0 .1-.1.3-.2.3l-1.7 1c-.1.1-.3.1-.4 0l-1.7-1c-.1-.1-.2-.2-.2-.3z"/><path fill="#353128" d="M76.6 3.1l-5.5-3c-.3-.2-.7.1-.7.4v14.1c0 .2-.3.4-.5.4l-.3-.1-1.7-1c-.6-.3-1.3-.3-1.9 0l-8.5 4.9c-.6.3-.9.9-.9 1.6v9.8c0 .7.4 1.3.9 1.6l8.4 4.9c.6.3 1.3.3 1.9 0l8.5-4.9c.6-.3.9-.9.9-1.6v-26c.1-.5-.2-.9-.6-1.1zm-6.2 24.1l-3.5 2-3.4-2v-4l3.5-2 3.4 2v4zM0 33.9V19.7c0-.3.2-.6.5-.8l9.7-5.4c.3-.1.6-.1.9 0l9.5 5.4c.3.2.5.5.5.8v14.2c0 .3-.3.5-.6.4L14.6 31c-.3-.1-.4-.4-.4-.7v-6.5c0-.3-.2-.6-.4-.8L11 21.4c-.2-.1-.5-.1-.8 0L7.5 23c-.3.2-.4.5-.4.8v6.4c0 .3-.2.6-.4.7l-6 3.2c-.4.3-.7.1-.7-.2zm85.1-15l9.4-5.3c.3-.2.7-.2 1.1 0l9.5 5.3c.3.2.5.5.5.9v2.6c0 .4-.2.8-.6.9l-6 3.3c-.3.1-.5-.1-.5-.3v-2.7c0-.3-.1-.5-.4-.7l-2.7-1.6c-.3-.2-.6-.2-.8 0l-2.7 1.6c-.2.1-.4.4-.4.7v3c0 .3.2.6.4.7l9.4 5.5c.2.1.2.5 0 .6l-5.9 3.3c-.3.1-.6.1-.8 0l-9.5-5.3c-.3-.2-.6-.6-.6-.9V19.8c0-.4.2-.8.6-.9z"/></symbol><symbol viewBox="0 0 18 7" id="npm"><path fill="#CB3837" d="M0 0v6h5v1h4V6h9V0"/><path fill="#FFF" d="M1 1v4h2V2h1v3h1V1h1v5h2V2h1v2H8v1h2V1h1v4h2V2h1v3h1V2h1v3h1V1"/></symbol><symbol viewBox="0, 0, 570, 510" id="react"><path fill-opacity="0" d="M0 0h570v510H0z"/><path d="M334.696 254.628c0 27.706-22.461 50.167-50.167 50.167-27.706 0-50.167-22.461-50.167-50.167 0-27.706 22.461-50.167 50.167-50.167 27.706 0 50.167 22.461 50.167 50.167z" fill="#00D8FF"/><path d="M284.529 152.628c67.356 0 129.928 9.665 177.107 25.907 56.844 19.569 91.794 49.233 91.794 76.093 0 27.991-37.041 59.503-98.083 79.728-46.151 15.291-106.879 23.272-170.818 23.272-65.554 0-127.63-7.492-174.29-23.441-59.046-20.182-94.611-52.103-94.611-79.559 0-26.642 33.37-56.076 89.415-75.616 47.355-16.509 111.472-26.384 179.486-26.384z" fill-opacity="0" stroke="#00D8FF" stroke-width="24" stroke-miterlimit="10"/><path d="M195.736 203.922c33.649-58.348 73.281-107.724 110.92-140.48 45.35-39.466 88.507-54.923 111.775-41.505 24.248 13.983 33.042 61.814 20.067 124.796-9.81 47.618-33.234 104.212-65.176 159.601-32.749 56.788-70.25 106.819-107.377 139.272-46.981 41.068-92.4 55.929-116.185 42.213-23.079-13.31-31.906-56.921-20.834-115.233 9.355-49.27 32.832-109.745 66.81-168.664z" fill-opacity="0" stroke="#00D8FF" stroke-width="24" stroke-miterlimit="10"/><path d="M195.821 306.482c-33.746-58.292-56.731-117.287-66.312-166.255-11.544-58.999-3.382-104.109 19.864-117.566 24.224-14.024 70.055 2.244 118.14 44.94 36.356 32.28 73.688 80.837 105.723 136.173 32.844 56.733 57.461 114.209 67.036 162.582 12.117 61.213 2.309 107.984-21.453 121.74-23.057 13.348-65.249-.784-110.239-39.499-38.013-32.711-78.682-83.253-112.759-142.115z" fill-opacity="0" stroke="#00D8FF" stroke-width="24" stroke-miterlimit="10"/></symbol><symbol viewBox="0 0 133.8 100.1" id="sass"><path fill="#C69" d="M62.7 58.4c1.8.3 2.6 1.3 2.2 3.1-1.1 4.3-2.4 8.5-3.2 12.9-.2 1.1-.3 2.1-.1 3.3.6-.1.7-.6.9-1 3.6-6.8 6.5-13.9 9.6-20.9 1.2-2.7 2.1-5.3 2.7-8.1.2-.7.6-1.1 1.3-1.3 1.8-.5 3.8-.8 5.7-.5 1.6.3 2.1 1 1.5 2.6-1.2 3.1-1.6 6.3-1 9.6.2 1.3.7 2.5 1.3 3.7.3.6.6.7 1 .1 2.9-5.3 6.4-10.3 7.9-16.3.7-3.2.9-3.3 4.5-3.6.9 0 1.7-.1 2.6 0 1.7.2 2.2 1 1.6 2.6-1.1 3.1-1.6 6.2-1 9.5.4 2.1 1.5 3.9 2.4 5.7.3.6.7.5 1.2.3 3.1-1.4 6.3-2.2 9.7-2.4 7.4-.3 13.9 1.5 18.2 8.1 2.1 3.3 2.8 6.9.8 10.6-1.1 2-2.8 3.4-4.9 4.2-.5.2-1.1.4-1.4-.2-.3-.6.3-.8.6-1.1 5.1-3.8 5.1-9.4 0-13.3-2.9-2.2-6.1-3.2-9.7-3.5-3.9-.4-7.8-.3-11.6 1.1-.8.3-1 .6-.7 1.4 2.2 6.1-.5 9.7-5.2 12.8-1.5 1-3.1 1.6-4.8 2.1-3.5 1-5.6-.9-4.9-4.5.6-3.3 2.4-6 4.6-8.5.6-.6 1.2-1.3 1.8-1.8.5-.4 1.1-.7 1.2-1.2 0-.4-1.8-1.9-3.7-9.9-.6 1.1-1.2 2.2-1.9 3.4-1.6 2.9-5.5 9.1-5.6 9.5s0 .8.2 1.2c.5 1.2.8 2.5.9 3.8.5 4.9-1.8 8.2-6 10.4-2.6 1.3-5.3 2.2-8.2 2.1-1.2 0-2.3-.3-2.9-1.4-.5-1.1-.1-2.1.6-3 2.2-2.7 4.5-5.4 6.7-8.2 1.3-1.6 1.8-2.3 1.8-3.1 0-.7-2.3-3.5-3.8-10.7-.8 1.9-1.6 3.8-2.4 5.6-2.7 6.2-5.8 12.2-9.1 18.1-.7 1.3-1.6 2.5-2.8 3.4-2.4 2.1-5 1.3-5.9-1.8-.5-1.8-.7-3.7-.4-5.6 0 0 .1-.9 0-1-1.3 2.8-2.4 5.5-3.9 8.1-1.2 2-2.7 3.5-5.3 3.2-1.3-.1-2.3-.6-3.1-1.6-2.1-2.7-3-5.8-3.4-9.2-.4-3.5.3-7 1.1-10.4.1-.4.3-.7.2-1.3-2.1 1.2-4.2 2.5-6.3 3.7-.6.4-.4.8-.3 1.3 2.4 7.4 1.5 14.4-3 20.8-3.3 4.7-7.9 7.6-13.6 8.7-.3.1-.7.2-1 .3h-4.7c-.1-.1-.2-.1-.4-.2-4.6-1.1-6.9-3.9-7-8.6-.2-5.1 2.1-9 5.7-12.3 4.4-4 9.4-7 14.6-9.7 1.4-.7 1.4-.8.1-1.8l-7.5-5.4c-3.8-2.6-7.5-5.4-10.7-8.7-3.1-3.1-5.4-6.8-6.6-11.1-2.1-9.7 6.1-16.6 11.6-21.6 4.7-4.4 10.1-8 15.7-11C35 5.8 43 2.3 51.8.7c1.3-.2 11.9-2.1 21.5 1.5 3.7 1.5 7.1 3.6 9 7.3 2.2 4.1 2.1 8.4.8 12.7-2.6 8.3-8 14.3-15.4 18.5-5.7 3.2-12 4.8-18.5 5.3-4.1.3-8.2.2-12-1.4-2.2-.9-4.1-2.3-5.5-4.2-.5-.6-.8-1.3-1-2.1-.1-.5-.2-1 .3-1.3.5-.3.8.1 1.1.4 3.5 3.6 7.9 4.4 12.6 4 8.2-.6 15.7-3.3 22.2-8.4 3.5-2.7 6.3-5.9 8.3-9.9.8-1.7 1.3-3.5 1.4-5.4.3-3.4-1.5-6.2-4.9-7.7-4.1-1.8-8.4-2.1-12.8-1.7-14.9 1.4-27.5 8.1-39.1 17-3 2.3-5.5 5.1-7.5 8.4-3.2 6.4-2.5 12.7 2.7 18.1 3 3.2 6.6 5.7 10.1 8.4 1.9 1.5 3.9 3.1 5.6 4.9.5.6 1 .6 1.7.2 3.8-2.1 7.7-4.2 11.5-6.3.6-.3.9-.7 1.3-1.2 2.2-2.6 4.6-4.9 7.7-6.3.7-.3 1.4-.6 2.1-.7 3.2-.8 5.5.8 5.8 4.1v1.2s0 2.2-.2 3.4c.6-1.4 2.1-1.1 2.1-1.1zM30.3 75.9c.1-1-.1-2.3-.4-3.6-.1-.5-.3-.8-.9-.4-4.6 2.8-9.2 5.6-12.8 9.7-2 2.3-3.3 4.9-3 8.1.1 1.6 1.1 2.6 2.7 2.8.7.1 1.3 0 1.9-.1 7-1.6 12.5-8.7 12.5-16.5zm16.1-1.8c0 1 0 1.9.2 2.9s.1 2.4 1.3 2.6c1.1.2 1.5-1.2 1.9-2 1.9-3.7 3.2-7.6 4.7-11.4 1-2.6 1.9-5.3 2.4-8.1.1-.6.3-1.3-.2-1.7-.6-.5-1.2-.2-1.8.1-.8.3-1.4.8-2 1.4-4.2 4.5-6.2 10-6.5 16.2zm53.4-5.5v-1.2c-.1-.7-.3-1-1-.4-2.2 2.1-3.5 4.6-4.3 7.5-.1.2-.2.5.1.7.3.2.6 0 .8-.1 2.8-1.1 4.4-3.5 4.4-6.5zM75.5 79.8c2.7-.4 6.9-4.8 6.1-7.1-1.9 2.4-3.8 4.7-6.1 7.1z"/></symbol><symbol viewBox="0 0 136.2 136.2" id="sublime"><linearGradient id="ma" gradientUnits="userSpaceOnUse" x1="-23.077" y1="16.193" x2="132.897" y2="104.971"><stop offset="0" stop-color="#6b6b6b"/><stop offset="1" stop-color="#131212"/></linearGradient><circle fill="url(#ma)" cx="68.1" cy="68.1" r="68.1"/><linearGradient id="mb" gradientUnits="userSpaceOnUse" x1="68.768" y1="31.128" x2="67.317" y2="105.42"><stop offset="0" stop-color="#fdb829"/><stop offset=".211" stop-color="#fcb428"/><stop offset=".483" stop-color="#fba825"/><stop offset=".786" stop-color="#f89621"/><stop offset="1" stop-color="#f6861f"/></linearGradient><path fill="url(#mb)" d="M86.1 49.7c-1.7-2.1-3.8-3.7-6.5-4.9-2.7-1.2-5.2-1.8-7.7-1.8-1.3 0-2.6.1-3.9.3-1.3.2-2.5.6-3.5 1.3-1.1.6-1.9 1.4-2.6 2.4-.7 1-1.1 2.3-1.1 3.8 0 1.3.3 2.4.8 3.3.6.9 1.4 1.7 2.5 2.3 1.1.7 2.4 1.3 3.9 1.8 1.5.6 3.2 1.1 5.1 1.7 2.7.9 5.5 1.9 8.4 2.9 2.9 1.1 5.6 2.5 8 4.2 2.4 1.8 4.4 4 6 6.6 1.6 2.6 2.4 5.9 2.4 9.8 0 4.5-.8 8.4-2.5 11.6-1.7 3.3-4 6-6.8 8.1-2.9 2.1-6.1 3.7-9.8 4.7-3.7 1-7.5 1.5-11.4 1.5-5.7 0-11.2-1-16.6-2.9-5.3-1.9-9.8-4.7-13.3-8.3L50 85.6c2 2.4 4.5 4.3 7.7 5.9 3.2 1.6 6.4 2.4 9.5 2.4 1.4 0 2.8-.1 4.2-.4 1.4-.3 2.5-.8 3.5-1.4 1-.7 1.8-1.5 2.4-2.6.6-1.1.9-2.4.9-4 0-1.5-.4-2.7-1.1-3.8-.8-1-1.8-2-3.2-2.8-1.4-.8-3.1-1.6-5.2-2.3-2.1-.7-4.4-1.5-7-2.3-2.6-.8-5.1-1.8-7.5-2.9-2.4-1.1-4.6-2.5-6.5-4.2-1.9-1.7-3.5-3.8-4.6-6.3-1.2-2.5-1.7-5.5-1.7-9 0-4.3.9-8.1 2.7-11.1 1.8-3.1 4.2-5.6 7.1-7.6 2.9-2 6.2-3.4 9.9-4.4 3.7-.9 7.4-1.4 11.2-1.4 4.5 0 9.1.8 13.8 2.4 4.7 1.6 8.8 4 12.3 7.2L86.1 49.7z"/></symbol></svg>