<svg xmlns="http://www.w3.org/2000/svg" viewBox="0 0 1000 1000">
    <style>
        .st0{fill:#f64040}
    </style>
    <g id="icon">
        <path class="st0" d="M500 637.2l-160.5 16.5-48.2 85.7H390l25.5-48h169l25.5 48h98.7l-48.2-85.7zm-100.5-90.1l83.2-15.8 17.3-38.8 17.3 38.8 83.2 15.8L500 368.5z"/>
        <path class="st0" d="M500 348.3l123.4 215.2L500 540.3v16.4l139.4 18.7L500 313.7zm0 262.6v16.4l167.7 13.3 56.6 98.8h6.8l-60.2-105.5z"/>
        <path class="st0" d="M500 563.8v16.4l174.5 17.6L500 258.7v36l161.9 294.8zm0 23.6v16.3l179.9 18.7 64.3 117h6.5l-67.2-124.2z"/>
        <path class="st0" d="M513.3 226.4L500 218l-90.1 56.9-217.2 464.5h3.9L421 284.7l79-47 263.9 501.7h5.8zm76.8 48.5l-19.3-12.2 233.4 476.7h3.1zm-34.5-21.8l-23.2-14.7 251.2 501h5.9z"/>
    </g>
</svg>
