<svg xmlns="http://www.w3.org/2000/svg" viewBox="0 0 136.2 136.2">
    <linearGradient id="a" gradientUnits="userSpaceOnUse" x1="-23.077" y1="16.193" x2="132.897" y2="104.971">
        <stop offset="0" stop-color="#6b6b6b"/>
        <stop offset="1" stop-color="#131212"/>
    </linearGradient>
    <circle fill="url(#a)" cx="68.1" cy="68.1" r="68.1"/>
    <linearGradient id="b" gradientUnits="userSpaceOnUse" x1="68.768" y1="31.128" x2="67.317" y2="105.42">
        <stop offset="0" stop-color="#fdb829"/>
        <stop offset=".211" stop-color="#fcb428"/>
        <stop offset=".483" stop-color="#fba825"/>
        <stop offset=".786" stop-color="#f89621"/>
        <stop offset="1" stop-color="#f6861f"/>
    </linearGradient>
    <path fill="url(#b)" d="M86.1 49.7c-1.7-2.1-3.8-3.7-6.5-4.9-2.7-1.2-5.2-1.8-7.7-1.8-1.3 0-2.6.1-3.9.3-1.3.2-2.5.6-3.5 1.3-1.1.6-1.9 1.4-2.6 2.4-.7 1-1.1 2.3-1.1 3.8 0 1.3.3 2.4.8 3.3.6.9 1.4 1.7 2.5 2.3 1.1.7 2.4 1.3 3.9 1.8 1.5.6 3.2 1.1 5.1 1.7 2.7.9 5.5 1.9 8.4 2.9 2.9 1.1 5.6 2.5 8 4.2 2.4 1.8 4.4 4 6 6.6 1.6 2.6 2.4 5.9 2.4 9.8 0 4.5-.8 8.4-2.5 11.6-1.7 3.3-4 6-6.8 8.1-2.9 2.1-6.1 3.7-9.8 4.7-3.7 1-7.5 1.5-11.4 1.5-5.7 0-11.2-1-16.6-2.9-5.3-1.9-9.8-4.7-13.3-8.3L50 85.6c2 2.4 4.5 4.3 7.7 5.9 3.2 1.6 6.4 2.4 9.5 2.4 1.4 0 2.8-.1 4.2-.4 1.4-.3 2.5-.8 3.5-1.4 1-.7 1.8-1.5 2.4-2.6.6-1.1.9-2.4.9-4 0-1.5-.4-2.7-1.1-3.8-.8-1-1.8-2-3.2-2.8-1.4-.8-3.1-1.6-5.2-2.3-2.1-.7-4.4-1.5-7-2.3-2.6-.8-5.1-1.8-7.5-2.9-2.4-1.1-4.6-2.5-6.5-4.2-1.9-1.7-3.5-3.8-4.6-6.3-1.2-2.5-1.7-5.5-1.7-9 0-4.3.9-8.1 2.7-11.1 1.8-3.1 4.2-5.6 7.1-7.6 2.9-2 6.2-3.4 9.9-4.4 3.7-.9 7.4-1.4 11.2-1.4 4.5 0 9.1.8 13.8 2.4 4.7 1.6 8.8 4 12.3 7.2L86.1 49.7z"/>
</svg>
